<svg id="Layer_1" data-name="Layer 1" xmlns="http://www.w3.org/2000/svg" viewBox="0 0 122.16 21.18"><path d="M41.85,12.25l-2-6.46a1.33,1.33,0,0,0-2.55,0l-2,6.46H29.43a1.33,1.33,0,0,0-.77,2.41l4.85,3.47-1.9,6.14a1.33,1.33,0,0,0,2.08,1.46L38.61,22l4.92,3.75a1.33,1.33,0,0,0,2.08-1.45L43.7,18.14l4.85-3.47a1.33,1.33,0,0,0-.77-2.41H41.85Z" transform="translate(-2.82 -4.84)"/><path d="M67.13,12.25l-2-6.46a1.33,1.33,0,0,0-2.55,0l-2,6.46H54.72a1.33,1.33,0,0,0-.78,2.41l4.86,3.47-1.91,6.14A1.33,1.33,0,0,0,59,25.73L63.89,22l4.92,3.75a1.33,1.33,0,0,0,2.08-1.45L69,18.14l4.86-3.47a1.33,1.33,0,0,0-.78-2.41H67.13Z" transform="translate(-2.82 -4.84)"/><path d="M92.42,12.25l-2-6.46a1.33,1.33,0,0,0-2.55,0l-2,6.46H80a1.33,1.33,0,0,0-.77,2.41l4.85,3.47-1.9,6.14a1.33,1.33,0,0,0,2.08,1.46L89.18,22l4.92,3.75a1.33,1.33,0,0,0,2.08-1.45l-1.91-6.15,4.85-3.47a1.33,1.33,0,0,0-.77-2.41H92.42Z" transform="translate(-2.82 -4.84)"/><path d="M16.56,12.25l-2-6.46a1.33,1.33,0,0,0-2.54,0l-2,6.46H4.15a1.33,1.33,0,0,0-.77,2.41l4.85,3.47L6.32,24.27A1.34,1.34,0,0,0,8.4,25.73L13.32,22l4.92,3.75a1.33,1.33,0,0,0,2.08-1.45l-1.9-6.15,4.85-3.47a1.33,1.33,0,0,0-.77-2.41H16.56Z" transform="translate(-2.82 -4.84)"/><path d="M123.86,12.29l-5.94-.52L115.59,6.3a1.23,1.23,0,0,0-2.26,0L111,11.78l-5.93.51a1.23,1.23,0,0,0-.7,2.15l4.51,3.9-1.35,5.8a1.22,1.22,0,0,0,1.83,1.32l5.09-3.07,5.1,3.09a1.23,1.23,0,0,0,1.83-1.33L120,18.34l4.51-3.9A1.22,1.22,0,0,0,123.86,12.29Zm-9.4,7.81-4.61,2.79,1.22-5.26L107,14.09l5.38-.47,2.08-4.94,2.1,5,5.38.46-4.07,3.54,1.22,5.26Z" transform="translate(-2.82 -4.84)"/></svg>