<svg id="Layer_1" data-name="Layer 1" xmlns="http://www.w3.org/2000/svg" viewBox="0 0 147.44 21.18"><path d="M72.25,12.25l-2-6.46a1.33,1.33,0,0,0-2.55,0l-2,6.46H59.83a1.33,1.33,0,0,0-.77,2.41l4.85,3.47L62,24.27a1.33,1.33,0,0,0,2.08,1.46L69,22l4.92,3.75A1.33,1.33,0,0,0,76,24.29L74.1,18.14,79,14.67a1.33,1.33,0,0,0-.77-2.41H72.25Z" transform="translate(-7.93 -4.84)"/><path d="M97.53,12.25l-2-6.46a1.33,1.33,0,0,0-2.55,0l-2,6.46H85.12a1.33,1.33,0,0,0-.78,2.41l4.86,3.47-1.91,6.14a1.33,1.33,0,0,0,2.08,1.46L94.29,22l4.92,3.75a1.33,1.33,0,0,0,2.08-1.45l-1.91-6.15,4.86-3.47a1.33,1.33,0,0,0-.78-2.41H97.53Z" transform="translate(-7.93 -4.84)"/><path d="M148.1,12.25l-2-6.46a1.33,1.33,0,0,0-2.55,0l-2,6.46h-5.93a1.33,1.33,0,0,0-.78,2.41l4.86,3.47-1.91,6.14a1.33,1.33,0,0,0,2.08,1.46L144.86,22l4.92,3.75a1.33,1.33,0,0,0,2.08-1.45L150,18.14l4.86-3.47a1.33,1.33,0,0,0-.78-2.41H148.1Z" transform="translate(-7.93 -4.84)"/><path d="M122.81,12.25l-2-6.46a1.33,1.33,0,0,0-2.54,0l-2,6.46H110.4a1.33,1.33,0,0,0-.77,2.41l4.85,3.47-1.91,6.14a1.34,1.34,0,0,0,2.08,1.46L119.57,22l4.92,3.75a1.33,1.33,0,0,0,2.08-1.45l-1.9-6.15,4.85-3.47a1.33,1.33,0,0,0-.77-2.41h-5.94Z" transform="translate(-7.93 -4.84)"/><path d="M21.68,12.25l-2-6.46a1.33,1.33,0,0,0-2.55,0l-2,6.46H9.26a1.33,1.33,0,0,0-.77,2.41l4.85,3.47-1.9,6.14a1.33,1.33,0,0,0,2.08,1.46L18.44,22l4.92,3.75a1.33,1.33,0,0,0,2.08-1.45l-1.91-6.15,4.85-3.47a1.33,1.33,0,0,0-.77-2.41H21.68Z" transform="translate(-7.93 -4.84)"/><path d="M47,12.25,45,5.79a1.33,1.33,0,0,0-2.55,0l-2,6.46H34.55a1.33,1.33,0,0,0-.78,2.41l4.86,3.47-1.91,6.14a1.33,1.33,0,0,0,2.08,1.46L43.72,22l4.92,3.75a1.33,1.33,0,0,0,2.08-1.45l-1.91-6.15,4.86-3.47a1.33,1.33,0,0,0-.78-2.41H47Z" transform="translate(-7.93 -4.84)"/></svg>